# xmcd CD database file
#
# Track frame offsets:
#	150
#	20897
#	40797
#	59167
#	84547
#	108345
#	126660
#	150760
#	169217
#	197192
#	218942
#
# Disc length: 3628 seconds
#
# Revision: 0
# Processed by: cddbd v1.4PL0 Copyright (c) Steve Scherf et al.
# Submitted via: CDex 1.40Beta9
#
DISCID=9f0e2a0b
DTITLE=Buddy Miles - Mighty Rhythm Tribe/Vibe
DYEAR=1993
DGENRE=Blues
TTITLE0=Tuff Love
TTITLE1=Mighty Rhythm Tribe
TTITLE2=Changes
TTITLE3=Do me a favour
TTITLE4=Life and Love
TTITLE5=Tribe Vibe
TTITLE6=Please don´t stop my heart
TTITLE7=Sugar Baby
TTITLE8=You´ve changed
TTITLE9=M.R.T. Party Theme (I just wanna dance)
TTITLE10=Bonus: Early Morning Interview
EXTD=YEAR: 1993 ID3G: 0
EXTT0=
EXTT1=
EXTT2=
EXTT3=
EXTT4=
EXTT5=
EXTT6=
EXTT7=
EXTT8=
EXTT9=
EXTT10=
PLAYORDER=
